<?xml version="1.0" encoding="UTF-8"?>
<svg xmlns="http://www.w3.org/2000/svg" viewBox="0 0 508.06 508.06">
  <defs>
    <style>
      .cls-1 {
        fill: #323232;
      }

      .cls-2 {
        fill: #8ed019;
      }
    </style>
  </defs>
  <g id="gelber_Balken" data-name="gelber Balken">
    <path class="cls-1" d="M244.41,492.44L481.6,197.28l.12,172.17-11.95,68.88-44.84,43.34s-43.3,11.4-44.86,10.67-79.3,.06-79.3,.06l-56.35,.04Z"/>
  </g>
  <g id="katzenohren">
    <polygon class="cls-2" points="493.49 182.82 484.22 75.59 444.36 33.19 312.61 15.97 90.48 16.12 21.58 66.72 21.69 226.04 21.79 374.64 30.35 445.1 96.94 492.54 244 492.44 493.49 182.82"/>
  </g>
  <g id="Rahmen">
    <path class="cls-1" d="M508.06,392.02l-.19-276.34C507.82,51.75,455.96-.05,392.02,0L115.68,.19C51.75,.24-.05,52.11,0,116.04L.19,392.38c.05,63.93,51.91,115.73,115.84,115.68l276.34-.19c63.93-.05,115.73-51.91,115.68-115.84ZM117.68,478.71c-48.64,.03-88.1-39.37-88.14-88.01l-.19-266.85c-.03-48.64,39.37-88.1,88.01-88.14l266.85-.19c48.64-.03,88.1,39.37,88.14,88.01l.19,266.85c.03,48.64-39.37,88.1-88.01,88.14l-266.85,.19Z"/>
  </g>
</svg>